<?xml version="1.0" encoding="utf-8"?>
<!-- Generator: Adobe Illustrator 27.4.0, SVG Export Plug-In . SVG Version: 6.00 Build 0)  -->
<svg version="1.1" id="Layer_1" xmlns="http://www.w3.org/2000/svg" xmlns:xlink="http://www.w3.org/1999/xlink" x="0px" y="0px"
	 viewBox="0 0 32 32" style="enable-background:new 0 0 32 32;" xml:space="preserve">
<style type="text/css">
	.st0{fill:none;}
	.st1{fill:#333333;}
</style>
<g id="그룹_2302" transform="translate(-1505.106 -192.106)">
	<rect id="사각형_433" x="1505.1" y="192.1" class="st0" width="32" height="32"/>
	<g id="그룹_1206" transform="translate(1511.932 200.07)">
		<path id="사각형_16" class="st1" d="M1.2,0h16c0.6,0,1,0.4,1,1l0,0c0,0.6-0.4,1-1,1h-16c-0.6,0-1-0.4-1-1l0,0
			C0.2,0.5,0.6,0,1.2,0z"/>
		<path id="사각형_17" class="st1" d="M1.2,7h16c0.6,0,1,0.4,1,1l0,0c0,0.6-0.4,1-1,1h-16c-0.6,0-1-0.4-1-1l0,0
			C0.2,7.5,0.6,7,1.2,7z"/>
		<path id="사각형_18" class="st1" d="M1.2,14h16c0.6,0,1,0.4,1,1l0,0c0,0.6-0.4,1-1,1h-16c-0.6,0-1-0.4-1-1l0,0
			C0.2,14.5,0.6,14,1.2,14z"/>
	</g>
</g>
</svg>
