<svg xmlns="http://www.w3.org/2000/svg" width="132" height="32" viewBox="0 0 132 32">
  <g id="그룹_1330" data-name="그룹 1330" transform="translate(-340 -50)">
    <text id="OCTOPUS" transform="translate(380 72)" fill="#333" font-size="20" font-family="Pretendard-SemiBold, Pretendard" font-weight="600" letter-spacing="-0.025em"><tspan x="0" y="0">OCTOPUS</tspan></text>
    <g id="그룹_2" data-name="그룹 2" transform="translate(0 1)">
      <rect id="사각형_6" data-name="사각형 6" width="32" height="32" rx="16" transform="translate(340 49)" fill="#333"/>
      <path id="패스_1" data-name="패스 1" d="M6566.636-540.7a.717.717,0,0,0,.717.717.718.718,0,0,0,.717-.717.718.718,0,0,0-.717-.717.717.717,0,0,0-.717.717Zm-8.3,7.633a.622.622,0,0,1,.485-.734.623.623,0,0,1,.735.485,2.766,2.766,0,0,0,.963,1.59,2.759,2.759,0,0,0,1.75.621,4.852,4.852,0,0,0,3.079-1.094,4.868,4.868,0,0,0,1.7-2.8.623.623,0,0,1,.734-.485.623.623,0,0,1,.486.734,6.11,6.11,0,0,1-2.13,3.516,6.092,6.092,0,0,1-3.864,1.377,4,4,0,0,1-2.535-.9,4.013,4.013,0,0,1-1.4-2.307Zm14.445-3.815a4.885,4.885,0,0,0,.819-1.444,4.865,4.865,0,0,0,.283-1.646,4.854,4.854,0,0,0-1.427-3.444,4.854,4.854,0,0,0-3.444-1.427,4.857,4.857,0,0,0-3.444,1.427,4.857,4.857,0,0,0-1.426,3.444,4.865,4.865,0,0,0,.283,1.646,4.875,4.875,0,0,0,.82,1.444.622.622,0,0,1,.14.532,4.552,4.552,0,0,1-.9,1.928,4.585,4.585,0,0,1-1.679,1.315.622.622,0,0,1-.824-.307.622.622,0,0,1,.308-.824,3.355,3.355,0,0,0,1.22-.959,3.322,3.322,0,0,0,.587-1.132,6.137,6.137,0,0,1-.844-1.577,6.125,6.125,0,0,1-.36-2.065,6.1,6.1,0,0,1,1.792-4.327,6.1,6.1,0,0,1,4.327-1.792,6.1,6.1,0,0,1,4.327,1.792,6.1,6.1,0,0,1,1.792,4.327,6.1,6.1,0,0,1-.361,2.065,6.091,6.091,0,0,1-.843,1.577,3.332,3.332,0,0,0,.588,1.132,3.343,3.343,0,0,0,1.221.959.621.621,0,0,1,.307.824.621.621,0,0,1-.824.307,4.6,4.6,0,0,1-1.68-1.315,4.568,4.568,0,0,1-.9-1.928.621.621,0,0,1,.14-.532Zm5.688,3.566a2.769,2.769,0,0,1-.964,1.59,2.758,2.758,0,0,1-1.75.621,4.854,4.854,0,0,1-3.079-1.094,4.879,4.879,0,0,1-1.7-2.8.622.622,0,0,0-.734-.485.623.623,0,0,0-.485.734,6.116,6.116,0,0,0,2.131,3.516,6.091,6.091,0,0,0,3.863,1.377,4,4,0,0,0,2.536-.9,4.02,4.02,0,0,0,1.4-2.307.623.623,0,0,0-.485-.734.622.622,0,0,0-.734.485Zm-8.52-7.384a.718.718,0,0,0,.717.717.718.718,0,0,0,.719-.717.718.718,0,0,0-.719-.717A.718.718,0,0,0,6569.946-540.7Z" transform="translate(-6213.048 603.017)" fill="#fff" fill-rule="evenodd"/>
    </g>
  </g>
</svg>
