<?xml version="1.0" encoding="utf-8"?>
<!-- Generator: Adobe Illustrator 27.7.0, SVG Export Plug-In . SVG Version: 6.00 Build 0)  -->
<svg version="1.1" id="Layer_1" xmlns="http://www.w3.org/2000/svg" xmlns:xlink="http://www.w3.org/1999/xlink" x="0px" y="0px"
	 viewBox="0 0 101.7 24.5" style="enable-background:new 0 0 101.7 24.5;" xml:space="preserve">
<style type="text/css">
	.st0{enable-background:new    ;}
	.st1{fill:none;}
</style>
<g id="그룹_14" transform="translate(-1166 -284.826)">
	<g class="st0">
		<path d="M1202.9,302c-2.9,0-5-2-5-5.4c0-3.5,2.2-5.4,5-5.4c2.8,0,5,1.9,5,5.4C1207.9,300,1205.7,302,1202.9,302z M1202.9,299.8
			c1.6,0,2.5-1.1,2.5-3.3c0-2.1-0.9-3.3-2.5-3.3c-1.5,0-2.5,1.1-2.5,3.3S1201.4,299.8,1202.9,299.8z"/>
		<path d="M1214,293.3c-1.6,0-2.5,1.2-2.5,3.3c0,2.1,1,3.3,2.5,3.3c1.1,0,1.9-0.6,2.1-1.7l2.5,0c-0.2,1.9-1.8,3.8-4.7,3.8
			s-5-2-5-5.4c0-3.5,2.2-5.4,5-5.4c2.5,0,4.4,1.4,4.7,4h-2.5C1215.9,294,1215.2,293.3,1214,293.3z"/>
		<path d="M1219.3,291.2h8.9v2h-3.2v8.6h-2.5v-8.6h-3.2V291.2z"/>
		<path d="M1233.5,302c-2.9,0-5-2-5-5.4c0-3.5,2.2-5.4,5-5.4c2.8,0,5,1.9,5,5.4C1238.6,300,1236.4,302,1233.5,302z M1233.5,299.8
			c1.6,0,2.5-1.1,2.5-3.3c0-2.1-0.9-3.3-2.5-3.3c-1.5,0-2.5,1.1-2.5,3.3S1232,299.8,1233.5,299.8z"/>
		<path d="M1239.7,291.2h4.3c2.4,0,3.9,1.5,3.9,3.6c0,2.2-1.5,3.6-3.9,3.6h-1.8v3.3h-2.5V291.2z M1243.5,296.5
			c1.2,0,1.8-0.7,1.8-1.7c0-1-0.6-1.6-1.8-1.6h-1.3v3.3H1243.5z"/>
		<path d="M1257.7,291.2v6.8c0,2.4-1.8,3.9-4.5,3.9c-2.7,0-4.5-1.5-4.5-3.9v-6.8h2.5v6.6c0,1.1,0.8,1.9,2,1.9c1.2,0,2-0.8,2-1.9
			v-6.6H1257.7z"/>
		<path d="M1263,293.1c-1,0-1.5,0.4-1.5,1c0,0.7,0.6,1,1.6,1.2l0.9,0.2c2,0.4,3.2,1.5,3.2,3.2c0,2-1.6,3.2-4.2,3.2
			c-2.6,0-4.4-1.2-4.4-3.6h2.4c0.1,1,0.8,1.6,2,1.6c1.1,0,1.7-0.5,1.7-1.1c0-0.6-0.6-0.9-1.7-1.2l-1.1-0.3c-1.8-0.4-2.9-1.3-2.9-2.9
			c0-2,1.7-3.3,4.1-3.3c2.4,0,4,1.3,4,3.3h-2.4C1264.6,293.6,1264,293.1,1263,293.1z"/>
	</g>
	<g id="그룹_13" transform="translate(1166 284.826)">
		<g id="사각형_6">
			<rect x="0.5" class="st1" width="24.5" height="24.5"/>
		</g>
		<g id="그룹_12" transform="translate(0.742 3.001)">
			<g id="합치기_1">
				<path d="M18,17.8c-0.9-0.2-1.8-0.7-2.5-1.3c-1.3-1-2.2-2.5-2.5-4.1c-0.1-0.4,0.2-0.8,0.6-0.9c0.4-0.1,0.8,0.2,0.9,0.6
					c0.3,1.3,1,2.4,2,3.2c1.1,0.9,2.6,1.3,4.1,1.1c1.1-0.3,2-1.2,2.2-2.4c0-0.4,0.4-0.7,0.8-0.7c0.4,0,0.7,0.4,0.7,0.8l0,0
					c-0.2,1.8-1.5,3.3-3.3,3.7C20.5,18,20.1,18,19.7,18C19.1,18,18.6,17.9,18,17.8z M3.8,17.9c-1.3-0.3-2.4-1.1-2.9-2.3
					c-0.2-0.4-0.3-0.9-0.4-1.4c0-0.4,0.3-0.8,0.7-0.8s0.8,0.3,0.8,0.7c0.2,1.2,1,2.1,2.2,2.4c1.4,0.2,2.9-0.2,4.1-1.1
					c1-0.8,1.7-1.9,2-3.2c0.1-0.4,0.5-0.7,0.9-0.6c0.4,0.1,0.7,0.5,0.6,0.9c-0.4,1.6-1.3,3-2.5,4.1c-0.7,0.6-1.6,1-2.5,1.3
					C6.1,17.9,5.5,18,4.9,18C4.6,18,4.2,18,3.8,17.9z M19.6,14.5c-2.4-0.7-3.2-3.4-3.3-3.5c-0.1-0.2,0-0.5,0.1-0.7
					c1.9-2.2,1.7-5.6-0.6-7.5s-5.6-1.7-7.5,0.6c-1.7,2-1.7,5,0,7c0.2,0.2,0.2,0.5,0.1,0.7c0,0.1-0.9,2.8-3.3,3.5
					c-0.4,0.1-0.8,0-1-0.4c-0.1-0.4,0-0.8,0.4-1c0,0,0.1,0,0.1,0c0.7-0.2,1.3-0.8,1.7-1.4c0.2-0.2,0.3-0.5,0.4-0.7
					c-2.3-3-1.6-7.3,1.4-9.6s7.3-1.6,9.6,1.4c1.8,2.4,1.8,5.8,0,8.2c0.4,1,1.1,1.8,2.1,2.2c0.4,0.1,0.6,0.5,0.5,0.9
					C20.4,14.4,20,14.6,19.6,14.5L19.6,14.5L19.6,14.5z M13.4,6c0-0.4,0.3-0.8,0.8-0.8C14.6,5.2,15,5.6,15,6c0,0.4-0.3,0.8-0.8,0.8
					C13.7,6.8,13.4,6.4,13.4,6L13.4,6z M9.7,6c0-0.4,0.3-0.8,0.8-0.8c0.4,0,0.8,0.3,0.8,0.8c0,0.4-0.3,0.8-0.8,0.8
					C10.1,6.8,9.8,6.4,9.7,6L9.7,6z"/>
			</g>
		</g>
	</g>
</g>
</svg>
