<?xml version="1.0" encoding="utf-8"?>
<!-- Generator: Adobe Illustrator 27.5.0, SVG Export Plug-In . SVG Version: 6.00 Build 0)  -->
<svg version="1.1" id="Layer_1" xmlns="http://www.w3.org/2000/svg" xmlns:xlink="http://www.w3.org/1999/xlink" x="0px" y="0px"
	 viewBox="0 0 80 92" style="enable-background:new 0 0 80 92;" xml:space="preserve">
<style type="text/css">
	.st0{fill:#826BCC;}
	.st1{fill:none;}
	.st2{fill:none;stroke:#826BCC;}
</style>
<g>
	<g id="그룹_2349" transform="translate(194.776 4342.776)">
		<path id="Icon_awesome-star" class="st0" d="M-187.8-4340.4l-1.6,3.2l-3.5,0.5c-0.4,0.1-0.7,0.5-0.7,0.9c0,0.2,0.1,0.3,0.2,0.4
			l2.6,2.5l-0.6,3.5c-0.1,0.4,0.2,0.8,0.6,0.9c0.2,0,0.3,0,0.5-0.1l3.2-1.7l3.2,1.7c0.4,0.2,0.8,0.1,1-0.3c0.1-0.1,0.1-0.3,0.1-0.5
			l-0.6-3.5l2.6-2.5c0.3-0.3,0.3-0.8,0-1.1c-0.1-0.1-0.3-0.2-0.4-0.2l-3.5-0.5l-1.6-3.2c-0.2-0.4-0.7-0.5-1-0.3
			C-187.6-4340.7-187.7-4340.6-187.8-4340.4z"/>
		<rect id="사각형_609" x="-194.8" y="-4342.8" class="st1" width="16" height="16"/>
	</g>
	<g id="그룹_3900" transform="translate(210.776 4342.776)">
		<path id="Icon_awesome-star-2" class="st0" d="M-187.8-4340.4l-1.6,3.2l-3.5,0.5c-0.4,0.1-0.7,0.5-0.7,0.9c0,0.2,0.1,0.3,0.2,0.4
			l2.6,2.5l-0.6,3.5c-0.1,0.4,0.2,0.8,0.6,0.9c0.2,0,0.3,0,0.5-0.1l3.2-1.7l3.2,1.7c0.4,0.2,0.8,0.1,1-0.3c0.1-0.1,0.1-0.3,0.1-0.5
			l-0.6-3.5l2.6-2.5c0.3-0.3,0.3-0.8,0-1.1c-0.1-0.1-0.3-0.2-0.4-0.2l-3.5-0.5l-1.6-3.2c-0.2-0.4-0.7-0.5-1-0.3
			C-187.6-4340.7-187.7-4340.6-187.8-4340.4z"/>
		<rect id="사각형_609-2" x="-194.8" y="-4342.8" class="st1" width="16" height="16"/>
	</g>
	<g id="그룹_3903" transform="translate(242.776 4342.776)">
		<path id="Icon_awesome-star-3" class="st0" d="M-187.8-4340.4l-1.6,3.2l-3.5,0.5c-0.4,0.1-0.7,0.5-0.7,0.9c0,0.2,0.1,0.3,0.2,0.4
			l2.6,2.5l-0.6,3.5c-0.1,0.4,0.2,0.8,0.6,0.9c0.2,0,0.3,0,0.5-0.1l3.2-1.7l3.2,1.7c0.4,0.2,0.8,0.1,1-0.3c0.1-0.1,0.1-0.3,0.1-0.5
			l-0.6-3.5l2.6-2.5c0.3-0.3,0.3-0.8,0-1.1c-0.1-0.1-0.3-0.2-0.4-0.2l-3.5-0.5l-1.6-3.2c-0.2-0.4-0.7-0.5-1-0.3
			C-187.6-4340.7-187.7-4340.6-187.8-4340.4z"/>
		<rect id="사각형_609-3" x="-194.8" y="-4342.8" class="st1" width="16" height="16"/>
	</g>
	<g id="그룹_3901" transform="translate(226.776 4342.776)">
		<path id="Icon_awesome-star-4" class="st0" d="M-187.8-4340.4l-1.6,3.2l-3.5,0.5c-0.4,0.1-0.7,0.5-0.7,0.9c0,0.2,0.1,0.3,0.2,0.4
			l2.6,2.5l-0.6,3.5c-0.1,0.4,0.2,0.8,0.6,0.9c0.2,0,0.3,0,0.5-0.1l3.2-1.7l3.2,1.7c0.4,0.2,0.8,0.1,1-0.3c0.1-0.1,0.1-0.3,0.1-0.5
			l-0.6-3.5l2.6-2.5c0.3-0.3,0.3-0.8,0-1.1c-0.1-0.1-0.3-0.2-0.4-0.2l-3.5-0.5l-1.6-3.2c-0.2-0.4-0.7-0.5-1-0.3
			C-187.6-4340.7-187.7-4340.6-187.8-4340.4z"/>
		<rect id="사각형_609-4" x="-194.8" y="-4342.8" class="st1" width="16" height="16"/>
	</g>
	<g id="그룹_3902" transform="translate(258.776 4342.776)">
		<path id="Icon_awesome-star-5" class="st0" d="M-187.8-4340.4l-1.6,3.2l-3.5,0.5c-0.4,0.1-0.7,0.5-0.7,0.9c0,0.2,0.1,0.3,0.2,0.4
			l2.6,2.5l-0.6,3.5c-0.1,0.4,0.2,0.8,0.6,0.9c0.2,0,0.3,0,0.5-0.1l3.2-1.7l3.2,1.7c0.4,0.2,0.8,0.1,1-0.3c0.1-0.1,0.1-0.3,0.1-0.5
			l-0.6-3.5l2.6-2.5c0.3-0.3,0.3-0.8,0-1.1c-0.1-0.1-0.3-0.2-0.4-0.2l-3.5-0.5l-1.6-3.2c-0.2-0.4-0.7-0.5-1-0.3
			C-187.6-4340.7-187.7-4340.6-187.8-4340.4z"/>
		<rect id="사각형_609-5" x="-194.8" y="-4342.8" class="st1" width="16" height="16"/>
	</g>
</g>
<g>
	<g id="그룹_4027" transform="translate(194.776 4361.776)">
		<path id="Icon_awesome-star-6" class="st0" d="M-187.8-4340.4l-1.6,3.2l-3.5,0.5c-0.4,0.1-0.7,0.5-0.7,0.9c0,0.2,0.1,0.3,0.2,0.4
			l2.6,2.5l-0.6,3.5c-0.1,0.4,0.2,0.8,0.6,0.9c0.2,0,0.3,0,0.5-0.1l3.2-1.7l3.2,1.7c0.4,0.2,0.8,0.1,1-0.3c0.1-0.1,0.1-0.3,0.1-0.5
			l-0.6-3.5l2.6-2.5c0.3-0.3,0.3-0.8,0-1.1c-0.1-0.1-0.3-0.2-0.4-0.2l-3.5-0.5l-1.6-3.2c-0.2-0.4-0.7-0.5-1-0.3
			C-187.6-4340.7-187.7-4340.6-187.8-4340.4z"/>
		<rect id="사각형_609-6" x="-194.8" y="-4342.8" class="st1" width="16" height="16"/>
	</g>
	<g id="그룹_4025" transform="translate(210.776 4361.776)">
		<path id="Icon_awesome-star-7" class="st0" d="M-187.8-4340.4l-1.6,3.2l-3.5,0.5c-0.4,0.1-0.7,0.5-0.7,0.9c0,0.2,0.1,0.3,0.2,0.4
			l2.6,2.5l-0.6,3.5c-0.1,0.4,0.2,0.8,0.6,0.9c0.2,0,0.3,0,0.5-0.1l3.2-1.7l3.2,1.7c0.4,0.2,0.8,0.1,1-0.3c0.1-0.1,0.1-0.3,0.1-0.5
			l-0.6-3.5l2.6-2.5c0.3-0.3,0.3-0.8,0-1.1c-0.1-0.1-0.3-0.2-0.4-0.2l-3.5-0.5l-1.6-3.2c-0.2-0.4-0.7-0.5-1-0.3
			C-187.6-4340.7-187.7-4340.6-187.8-4340.4z"/>
		<rect id="사각형_609-7" x="-194.8" y="-4342.8" class="st1" width="16" height="16"/>
	</g>
	<g id="그룹_4024" transform="translate(242.776 4361.776)">
		<path id="Icon_awesome-star-8" class="st0" d="M-187.8-4340.4l-1.6,3.2l-3.5,0.5c-0.4,0.1-0.7,0.5-0.7,0.9c0,0.2,0.1,0.3,0.2,0.4
			l2.6,2.5l-0.6,3.5c-0.1,0.4,0.2,0.8,0.6,0.9c0.2,0,0.3,0,0.5-0.1l3.2-1.7l3.2,1.7c0.4,0.2,0.8,0.1,1-0.3c0.1-0.1,0.1-0.3,0.1-0.5
			l-0.6-3.5l2.6-2.5c0.3-0.3,0.3-0.8,0-1.1c-0.1-0.1-0.3-0.2-0.4-0.2l-3.5-0.5l-1.6-3.2c-0.2-0.4-0.7-0.5-1-0.3
			C-187.6-4340.7-187.7-4340.6-187.8-4340.4z"/>
		<rect id="사각형_609-8" x="-194.8" y="-4342.8" class="st1" width="16" height="16"/>
	</g>
	<g id="그룹_4026" transform="translate(226.776 4361.776)">
		<path id="Icon_awesome-star-9" class="st0" d="M-187.8-4340.4l-1.6,3.2l-3.5,0.5c-0.4,0.1-0.7,0.5-0.7,0.9c0,0.2,0.1,0.3,0.2,0.4
			l2.6,2.5l-0.6,3.5c-0.1,0.4,0.2,0.8,0.6,0.9c0.2,0,0.3,0,0.5-0.1l3.2-1.7l3.2,1.7c0.4,0.2,0.8,0.1,1-0.3c0.1-0.1,0.1-0.3,0.1-0.5
			l-0.6-3.5l2.6-2.5c0.3-0.3,0.3-0.8,0-1.1c-0.1-0.1-0.3-0.2-0.4-0.2l-3.5-0.5l-1.6-3.2c-0.2-0.4-0.7-0.5-1-0.3
			C-187.6-4340.7-187.7-4340.6-187.8-4340.4z"/>
		<rect id="사각형_609-9" x="-194.8" y="-4342.8" class="st1" width="16" height="16"/>
	</g>
	<g id="그룹_4023" transform="translate(-20 19)">
		<path id="Icon_awesome-star-10" class="st2" d="M91,2.4l-1.6,3.2l-3.5,0.5c-0.4,0.1-0.7,0.5-0.7,0.9c0,0.2,0.1,0.3,0.2,0.4L88,9.9
			l-0.6,3.5c-0.1,0.4,0.2,0.8,0.6,0.9c0.2,0,0.3,0,0.5-0.1l3.2-1.7l3.2,1.7c0.4,0.2,0.8,0.1,1-0.3c0.1-0.1,0.1-0.3,0.1-0.5l-0.6-3.5
			L98,7.4c0.3-0.3,0.3-0.8,0-1.1c-0.1-0.1-0.3-0.2-0.4-0.2L94,5.6l-1.6-3.2c-0.2-0.4-0.7-0.5-1-0.3C91.2,2.1,91.1,2.2,91,2.4z"/>
		<rect id="사각형_609-10" x="84" class="st1" width="16" height="16"/>
	</g>
</g>
<g>
	<path id="Icon_awesome-star-11" class="st0" d="M7,40.4l-1.6,3.2l-3.5,0.5c-0.4,0.1-0.7,0.5-0.7,0.9c0,0.2,0.1,0.3,0.2,0.4L4,47.9
		l-0.6,3.5c-0.1,0.4,0.2,0.8,0.6,0.9c0.2,0,0.3,0,0.5-0.1l3.2-1.7l3.2,1.7c0.4,0.2,0.8,0.1,1-0.3c0.1-0.1,0.1-0.3,0.1-0.5l-0.6-3.5
		l2.6-2.5c0.3-0.3,0.3-0.8,0-1.1c-0.1-0.1-0.3-0.2-0.4-0.2L10,43.6l-1.6-3.2c-0.2-0.4-0.7-0.5-1-0.3C7.2,40.1,7.1,40.2,7,40.4z"/>
	<rect id="사각형_609-11" x="0" y="38" class="st1" width="16" height="16"/>
	<path id="Icon_awesome-star-12" class="st0" d="M23,40.4l-1.6,3.2l-3.5,0.5c-0.4,0.1-0.7,0.5-0.7,0.9c0,0.2,0.1,0.3,0.2,0.4
		l2.6,2.5l-0.6,3.5c-0.1,0.4,0.2,0.8,0.6,0.9c0.2,0,0.3,0,0.5-0.1l3.2-1.7l3.2,1.7c0.4,0.2,0.8,0.1,1-0.3c0.1-0.1,0.1-0.3,0.1-0.5
		l-0.6-3.5l2.6-2.5c0.3-0.3,0.3-0.8,0-1.1c-0.1-0.1-0.3-0.2-0.4-0.2L26,43.6l-1.6-3.2c-0.2-0.4-0.7-0.5-1-0.3
		C23.2,40.1,23.1,40.2,23,40.4z"/>
	<rect id="사각형_609-12" x="16" y="38" class="st1" width="16" height="16"/>
	<path id="Icon_awesome-star-13" class="st2" d="M55,40.4l-1.6,3.2l-3.5,0.5c-0.4,0.1-0.7,0.5-0.7,0.9c0,0.2,0.1,0.3,0.2,0.4
		l2.6,2.5l-0.6,3.5c-0.1,0.4,0.2,0.8,0.6,0.9c0.2,0,0.3,0,0.5-0.1l3.2-1.7l3.2,1.7c0.4,0.2,0.8,0.1,1-0.3c0.1-0.1,0.1-0.3,0.1-0.5
		l-0.6-3.5l2.6-2.5c0.3-0.3,0.3-0.8,0-1.1c-0.1-0.1-0.3-0.2-0.4-0.2L58,43.6l-1.6-3.2c-0.2-0.4-0.7-0.5-1-0.3
		C55.2,40.1,55.1,40.2,55,40.4z"/>
	<rect id="사각형_609-13" x="48" y="38" class="st1" width="16" height="16"/>
	<path id="Icon_awesome-star-14" class="st0" d="M39,40.4l-1.6,3.2l-3.5,0.5c-0.4,0.1-0.7,0.5-0.7,0.9c0,0.2,0.1,0.3,0.2,0.4
		l2.6,2.5l-0.6,3.5c-0.1,0.4,0.2,0.8,0.6,0.9c0.2,0,0.3,0,0.5-0.1l3.2-1.7l3.2,1.7c0.4,0.2,0.8,0.1,1-0.3c0.1-0.1,0.1-0.3,0.1-0.5
		l-0.6-3.5l2.6-2.5c0.3-0.3,0.3-0.8,0-1.1c-0.1-0.1-0.3-0.2-0.4-0.2L42,43.6l-1.6-3.2c-0.2-0.4-0.7-0.5-1-0.3
		C39.2,40.1,39.1,40.2,39,40.4z"/>
	<rect id="사각형_609-14" x="32" y="38" class="st1" width="16" height="16"/>
	<path id="Icon_awesome-star-15" class="st2" d="M71,40.4l-1.6,3.2l-3.5,0.5c-0.4,0.1-0.7,0.5-0.7,0.9c0,0.2,0.1,0.3,0.2,0.4
		l2.6,2.5l-0.6,3.5c-0.1,0.4,0.2,0.8,0.6,0.9c0.2,0,0.3,0,0.5-0.1l3.2-1.7l3.2,1.7c0.4,0.2,0.8,0.1,1-0.3c0.1-0.1,0.1-0.3,0.1-0.5
		l-0.6-3.5l2.6-2.5c0.3-0.3,0.3-0.8,0-1.1c-0.1-0.1-0.3-0.2-0.4-0.2L74,43.6l-1.6-3.2c-0.2-0.4-0.7-0.5-1-0.3
		C71.2,40.1,71.1,40.2,71,40.4z"/>
	<rect id="사각형_609-15" x="64" y="38" class="st1" width="16" height="16"/>
</g>
<g>
	<path id="Icon_awesome-star-16" class="st0" d="M7,59.4l-1.6,3.2l-3.5,0.5c-0.4,0.1-0.7,0.5-0.7,0.9c0,0.2,0.1,0.3,0.2,0.4L4,66.9
		l-0.6,3.5c-0.1,0.4,0.2,0.8,0.6,0.9c0.2,0,0.3,0,0.5-0.1l3.2-1.7l3.2,1.7c0.4,0.2,0.8,0.1,1-0.3c0.1-0.1,0.1-0.3,0.1-0.5l-0.6-3.5
		l2.6-2.5c0.3-0.3,0.3-0.8,0-1.1c-0.1-0.1-0.3-0.2-0.4-0.2L10,62.6l-1.6-3.2c-0.2-0.4-0.7-0.5-1-0.3C7.2,59.1,7.1,59.2,7,59.4z"/>
	<rect id="사각형_609-16" x="0" y="57" class="st1" width="16" height="16"/>
	<path id="Icon_awesome-star-17" class="st0" d="M23,59.4l-1.6,3.2l-3.5,0.5c-0.4,0.1-0.7,0.5-0.7,0.9c0,0.2,0.1,0.3,0.2,0.4
		l2.6,2.5l-0.6,3.5c-0.1,0.4,0.2,0.8,0.6,0.9c0.2,0,0.3,0,0.5-0.1l3.2-1.7l3.2,1.7c0.4,0.2,0.8,0.1,1-0.3c0.1-0.1,0.1-0.3,0.1-0.5
		l-0.6-3.5l2.6-2.5c0.3-0.3,0.3-0.8,0-1.1c-0.1-0.1-0.3-0.2-0.4-0.2L26,62.6l-1.6-3.2c-0.2-0.4-0.7-0.5-1-0.3
		C23.2,59.1,23.1,59.2,23,59.4z"/>
	<rect id="사각형_609-17" x="16" y="57" class="st1" width="16" height="16"/>
	<path id="Icon_awesome-star-18" class="st2" d="M55,59.4l-1.6,3.2l-3.5,0.5c-0.4,0.1-0.7,0.5-0.7,0.9c0,0.2,0.1,0.3,0.2,0.4
		l2.6,2.5l-0.6,3.5c-0.1,0.4,0.2,0.8,0.6,0.9c0.2,0,0.3,0,0.5-0.1l3.2-1.7l3.2,1.7c0.4,0.2,0.8,0.1,1-0.3c0.1-0.1,0.1-0.3,0.1-0.5
		l-0.6-3.5l2.6-2.5c0.3-0.3,0.3-0.8,0-1.1c-0.1-0.1-0.3-0.2-0.4-0.2L58,62.6l-1.6-3.2c-0.2-0.4-0.7-0.5-1-0.3
		C55.2,59.1,55.1,59.2,55,59.4z"/>
	<rect id="사각형_609-18" x="48" y="57" class="st1" width="16" height="16"/>
	<path id="Icon_awesome-star-19" class="st2" d="M39,59.4l-1.6,3.2l-3.5,0.5c-0.4,0.1-0.7,0.5-0.7,0.9c0,0.2,0.1,0.3,0.2,0.4
		l2.6,2.5l-0.6,3.5c-0.1,0.4,0.2,0.8,0.6,0.9c0.2,0,0.3,0,0.5-0.1l3.2-1.7l3.2,1.7c0.4,0.2,0.8,0.1,1-0.3c0.1-0.1,0.1-0.3,0.1-0.5
		l-0.6-3.5l2.6-2.5c0.3-0.3,0.3-0.8,0-1.1c-0.1-0.1-0.3-0.2-0.4-0.2L42,62.6l-1.6-3.2c-0.2-0.4-0.7-0.5-1-0.3
		C39.2,59.1,39.1,59.2,39,59.4z"/>
	<rect id="사각형_609-19" x="32" y="57" class="st1" width="16" height="16"/>
	<path id="Icon_awesome-star-20" class="st2" d="M71,59.4l-1.6,3.2l-3.5,0.5c-0.4,0.1-0.7,0.5-0.7,0.9c0,0.2,0.1,0.3,0.2,0.4
		l2.6,2.5l-0.6,3.5c-0.1,0.4,0.2,0.8,0.6,0.9c0.2,0,0.3,0,0.5-0.1l3.2-1.7l3.2,1.7c0.4,0.2,0.8,0.1,1-0.3c0.1-0.1,0.1-0.3,0.1-0.5
		l-0.6-3.5l2.6-2.5c0.3-0.3,0.3-0.8,0-1.1c-0.1-0.1-0.3-0.2-0.4-0.2L74,62.6l-1.6-3.2c-0.2-0.4-0.7-0.5-1-0.3
		C71.2,59.1,71.1,59.2,71,59.4z"/>
	<rect id="사각형_609-20" x="64" y="57" class="st1" width="16" height="16"/>
</g>
<g>
	<path id="Icon_awesome-star-21" class="st0" d="M7,78.4l-1.6,3.2l-3.5,0.5c-0.4,0.1-0.7,0.5-0.7,0.9c0,0.2,0.1,0.3,0.2,0.4L4,85.9
		l-0.6,3.5c-0.1,0.4,0.2,0.8,0.6,0.9c0.2,0,0.3,0,0.5-0.1l3.2-1.7l3.2,1.7c0.4,0.2,0.8,0.1,1-0.3c0.1-0.1,0.1-0.3,0.1-0.5l-0.6-3.5
		l2.6-2.5c0.3-0.3,0.3-0.8,0-1.1c-0.1-0.1-0.3-0.2-0.4-0.2L10,81.6l-1.6-3.2c-0.2-0.4-0.7-0.5-1-0.3C7.2,78.1,7.1,78.2,7,78.4z"/>
	<rect id="사각형_609-21" x="0" y="76" class="st1" width="16" height="16"/>
	<path id="Icon_awesome-star-22" class="st2" d="M55,78.4l-1.6,3.2l-3.5,0.5c-0.4,0.1-0.7,0.5-0.7,0.9c0,0.2,0.1,0.3,0.2,0.4
		l2.6,2.5l-0.6,3.5c-0.1,0.4,0.2,0.8,0.6,0.9c0.2,0,0.3,0,0.5-0.1l3.2-1.7l3.2,1.7c0.4,0.2,0.8,0.1,1-0.3c0.1-0.1,0.1-0.3,0.1-0.5
		l-0.6-3.5l2.6-2.5c0.3-0.3,0.3-0.8,0-1.1c-0.1-0.1-0.3-0.2-0.4-0.2L58,81.6l-1.6-3.2c-0.2-0.4-0.7-0.5-1-0.3
		C55.2,78.1,55.1,78.2,55,78.4z"/>
	<rect id="사각형_609-22" x="48" y="76" class="st1" width="16" height="16"/>
	<path id="Icon_awesome-star-23" class="st2" d="M39,78.4l-1.6,3.2l-3.5,0.5c-0.4,0.1-0.7,0.5-0.7,0.9c0,0.2,0.1,0.3,0.2,0.4
		l2.6,2.5l-0.6,3.5c-0.1,0.4,0.2,0.8,0.6,0.9c0.2,0,0.3,0,0.5-0.1l3.2-1.7l3.2,1.7c0.4,0.2,0.8,0.1,1-0.3c0.1-0.1,0.1-0.3,0.1-0.5
		l-0.6-3.5l2.6-2.5c0.3-0.3,0.3-0.8,0-1.1c-0.1-0.1-0.3-0.2-0.4-0.2L42,81.6l-1.6-3.2c-0.2-0.4-0.7-0.5-1-0.3
		C39.2,78.1,39.1,78.2,39,78.4z"/>
	<rect id="사각형_609-23" x="32" y="76" class="st1" width="16" height="16"/>
	<path id="Icon_awesome-star-24" class="st2" d="M23,78.4l-1.6,3.2l-3.5,0.5c-0.4,0.1-0.7,0.5-0.7,0.9c0,0.2,0.1,0.3,0.2,0.4
		l2.6,2.5l-0.6,3.5c-0.1,0.4,0.2,0.8,0.6,0.9c0.2,0,0.3,0,0.5-0.1l3.2-1.7l3.2,1.7c0.4,0.2,0.8,0.1,1-0.3c0.1-0.1,0.1-0.3,0.1-0.5
		l-0.6-3.5l2.6-2.5c0.3-0.3,0.3-0.8,0-1.1c-0.1-0.1-0.3-0.2-0.4-0.2L26,81.6l-1.6-3.2c-0.2-0.4-0.7-0.5-1-0.3
		C23.2,78.1,23.1,78.2,23,78.4z"/>
	<rect id="사각형_609-24" x="16" y="76" class="st1" width="16" height="16"/>
	<path id="Icon_awesome-star-25" class="st2" d="M71,78.4l-1.6,3.2l-3.5,0.5c-0.4,0.1-0.7,0.5-0.7,0.9c0,0.2,0.1,0.3,0.2,0.4
		l2.6,2.5l-0.6,3.5c-0.1,0.4,0.2,0.8,0.6,0.9c0.2,0,0.3,0,0.5-0.1l3.2-1.7l3.2,1.7c0.4,0.2,0.8,0.1,1-0.3c0.1-0.1,0.1-0.3,0.1-0.5
		l-0.6-3.5l2.6-2.5c0.3-0.3,0.3-0.8,0-1.1c-0.1-0.1-0.3-0.2-0.4-0.2L74,81.6l-1.6-3.2c-0.2-0.4-0.7-0.5-1-0.3
		C71.2,78.1,71.1,78.2,71,78.4z"/>
	<rect id="사각형_609-25" x="64" y="76" class="st1" width="16" height="16"/>
</g>
</svg>
