<?xml version="1.0" encoding="utf-8"?>
<!-- Generator: Adobe Illustrator 27.4.1, SVG Export Plug-In . SVG Version: 6.00 Build 0)  -->
<svg version="1.1" id="Layer_1" xmlns="http://www.w3.org/2000/svg" xmlns:xlink="http://www.w3.org/1999/xlink" x="0px" y="0px"
	 viewBox="0 0 30 30" style="enable-background:new 0 0 30 30;" xml:space="preserve">
<style type="text/css">
	.st0{fill:#FFFFFF;}
	.st1{fill:none;}
</style>
<g id="그룹_1277" transform="translate(-785 -1172)">
	<path id="Icon_ionic-ios-arrow-down" class="st0" d="M795.9,1189.9C795.9,1189.9,795.8,1189.9,795.9,1189.9c-0.4,0.3-0.9,0.3-1.1,0
		c-0.3-0.3-0.3-0.8,0-1.1l4.7-4.7c0.3-0.3,0.8-0.3,1.1,0l4.7,4.7c0.3,0.3,0.3,0.8,0,1.1c0,0,0,0,0,0c-0.3,0.3-0.8,0.3-1.1,0
		l-4.1-4.1L795.9,1189.9z"/>
	<rect id="사각형_457" x="785" y="1172" class="st1" width="30" height="30"/>
</g>
</svg>
