<svg xmlns="http://www.w3.org/2000/svg" width="26" height="26" viewBox="0 0 26 26">
  <g id="그룹_3936" data-name="그룹 3936" transform="translate(-795 -424)">
    <rect id="사각형_427" data-name="사각형 427" width="26" height="26" transform="translate(795 424)" fill="#fff"/>
    <g id="그룹_1194" data-name="그룹 1194" transform="translate(802.214 430.002)">
      <g id="패스_402" data-name="패스 402" transform="translate(-4.5 -10.981)" fill="none" stroke-linecap="round" stroke-linejoin="round">
        <path d="M5.738,16.5H14.4a1.479,1.479,0,0,1,1.238,1.636v5.726A1.479,1.479,0,0,1,14.4,25.5H5.738A1.479,1.479,0,0,1,4.5,23.862V18.136A1.479,1.479,0,0,1,5.738,16.5Z" stroke="none"/>
        <path d="M 5.746013641357422 17.5000057220459 C 5.672040939331055 17.53265190124512 5.500002861022949 17.75805854797363 5.500002861022949 18.13609504699707 L 5.500002861022949 23.86243629455566 C 5.500002861022949 24.2404727935791 5.672040939331055 24.46587944030762 5.746013641357422 24.49852561950684 L 14.39359283447266 24.49852561950684 C 14.46756553649902 24.46587944030762 14.63960266113281 24.2404727935791 14.63960266113281 23.86243629455566 L 14.63960266113281 18.13609504699707 C 14.63960266113281 17.75805854797363 14.46756553649902 17.53265190124512 14.39359283447266 17.5000057220459 L 5.746013641357422 17.5000057220459 M 5.737732887268066 16.5000057220459 L 14.4018726348877 16.5000057220459 C 15.08545303344727 16.5000057220459 15.63960266113281 17.23250579833984 15.63960266113281 18.13609504699707 L 15.63960266113281 23.86243629455566 C 15.63960266113281 24.76602554321289 15.08545303344727 25.49852561950684 14.4018726348877 25.49852561950684 L 5.737732887268066 25.49852561950684 C 5.054153442382812 25.49852561950684 4.500002861022949 24.76602554321289 4.500002861022949 23.86243629455566 L 4.500002861022949 18.13609504699707 C 4.500002861022949 17.23250579833984 5.054153442382812 16.5000057220459 5.737732887268066 16.5000057220459 Z" stroke="none" fill="#aaa"/>
      </g>
      <path id="패스_403" data-name="패스 403" d="M10.5,8.519V6.066a3.1,3.1,0,0,1,6.195,0V8.519" transform="translate(-8.028 -3)" fill="none" stroke="#aaa" stroke-linecap="round" stroke-linejoin="round" stroke-width="1"/>
      <circle id="타원_15" data-name="타원 15" cx="1.083" cy="1.083" r="1.083" transform="translate(4.486 8.352)" fill="#aaa"/>
    </g>
  </g>
</svg>
