<svg xmlns="http://www.w3.org/2000/svg" width="36" height="36" viewBox="0 0 36 36">
  <g id="그룹_2371" data-name="그룹 2371" transform="translate(-1445 -482)">
    <rect id="사각형_426" data-name="사각형 426" width="36" height="36" transform="translate(1445 482)" fill="none"/>
    <path id="Icon_feather-heart" data-name="Icon feather-heart" d="M17.865,3.747a6.3,6.3,0,0,1,4.456,10.758L13.4,23.426a.75.75,0,0,1-1.061,0L3.419,14.505a6.3,6.3,0,0,1,8.912-8.912l.539.539.539-.539A6.259,6.259,0,0,1,17.865,3.747Zm-5,18.088,8.391-8.391a4.8,4.8,0,1,0-6.79-6.791L13.4,7.724a.75.75,0,0,1-1.061,0l-1.07-1.07a4.8,4.8,0,0,0-6.791,6.791Z" transform="translate(1450.414 486.601)" fill="#333"/>
  </g>
</svg>
