<svg xmlns="http://www.w3.org/2000/svg" width="36" height="36" viewBox="0 0 36 36">
  <g id="그룹_5034" data-name="그룹 5034" transform="translate(-735 -1136)">
    <rect id="사각형_2169" data-name="사각형 2169" width="36" height="36" transform="translate(735 1136)" fill="none"/>
    <g id="그룹_5033" data-name="그룹 5033" transform="translate(-13278 -38)">
      <path id="패스_420" data-name="패스 420" d="M22.539,29.087H6a.75.75,0,0,1-.75-.75V18a.75.75,0,0,1,1.5,0v9.587H21.789V18a.75.75,0,0,1,1.5,0V28.337A.75.75,0,0,1,22.539,29.087Z" transform="translate(14017.067 1174.337)" fill="#333"/>
      <path id="패스_421" data-name="패스 421" d="M3,14.918H5.067a.75.75,0,0,1,0,1.5H3a.75.75,0,0,1,0-1.5Z" transform="translate(14018 1176.668)" fill="#333"/>
      <path id="패스_426" data-name="패스 426" d="M3,14.918H5.067a.75.75,0,0,1,0,1.5H3a.75.75,0,0,1,0-1.5Z" transform="translate(14036.606 1176.668)" fill="#333"/>
      <path id="패스_427" data-name="패스 427" d="M3,14.918H8.168a.75.75,0,0,1,0,1.5H3a.75.75,0,0,1,0-1.5Z" transform="translate(14026.006 1195.337) rotate(-90)" fill="#333"/>
      <path id="패스_428" data-name="패스 428" d="M3,14.918H8.168a.75.75,0,0,1,0,1.5H3a.75.75,0,0,1,0-1.5Z" transform="translate(14005.332 1195.337) rotate(-90)" fill="#333"/>
      <path id="패스_425" data-name="패스 425" d="M3,14.918H23.674a.75.75,0,0,1,0,1.5H3a.75.75,0,0,1,0-1.5Z" transform="translate(14018 1171.5)" fill="#333"/>
      <path id="패스_422" data-name="패스 422" d="M18,26.755a.75.75,0,0,1-.75-.75V10.5a.75.75,0,0,1,1.5,0V26.005A.75.75,0,0,1,18,26.755Z" transform="translate(14013.337 1176.668)" fill="#333"/>
      <path id="패스_423" data-name="패스 423" d="M14.736,8.918H10.084a3.334,3.334,0,0,1,0-6.668c1.769,0,3.27,1.028,4.34,2.973a10.884,10.884,0,0,1,1.047,2.8.75.75,0,0,1-.735.9ZM10.084,3.75a1.834,1.834,0,0,0,0,3.668h3.662C13.3,6.088,12.21,3.75,10.084,3.75Z" transform="translate(14016.601 1179)" fill="#333"/>
      <path id="패스_424" data-name="패스 424" d="M22.652,8.918H18a.75.75,0,0,1-.735-.9,10.884,10.884,0,0,1,1.047-2.8c1.07-1.945,2.57-2.973,4.34-2.973a3.334,3.334,0,1,1,0,6.668Zm-3.665-1.5h3.665a1.834,1.834,0,1,0,0-3.668C20.516,3.75,19.431,6.089,18.987,7.418Z" transform="translate(14013.337 1179)" fill="#333"/>
    </g>
  </g>
</svg>
