<svg xmlns="http://www.w3.org/2000/svg" width="28" height="28" viewBox="0 0 28 28">
  <g id="그룹_1196" data-name="그룹 1196" transform="translate(-795 -424)">
    <rect id="사각형_427" data-name="사각형 427" width="28" height="28" transform="translate(795 424)" fill="none"/>
    <g id="그룹_1194" data-name="그룹 1194" transform="translate(802.768 430.464)">
      <g id="패스_402" data-name="패스 402" transform="translate(-4.5 -10.556)" fill="none" stroke-linecap="round" stroke-linejoin="round">
        <path d="M5.833,16.5h9.331A1.593,1.593,0,0,1,16.5,18.262v6.167a1.593,1.593,0,0,1-1.333,1.762H5.833A1.593,1.593,0,0,1,4.5,24.429V18.262A1.593,1.593,0,0,1,5.833,16.5Z" stroke="none"/>
        <path d="M 5.832940101623535 17.50000381469727 C 5.752670288085938 17.50000381469727 5.5 17.77861404418945 5.5 18.26195335388184 L 5.5 24.42877388000488 C 5.5 24.91211318969727 5.752670288085938 25.19072341918945 5.832940101623535 25.19072341918945 L 15.16355991363525 25.19072341918945 C 15.24382972717285 25.19072341918945 15.49650001525879 24.91211318969727 15.49650001525879 24.42877388000488 L 15.49650001525879 18.26195335388184 C 15.49650001525879 17.77861404418945 15.24382972717285 17.50000381469727 15.16355991363525 17.50000381469727 L 5.832940101623535 17.50000381469727 M 5.832940101623535 16.50000381469727 L 15.16355991363525 16.50000381469727 C 15.89972019195557 16.50000381469727 16.49650001525879 17.28885269165039 16.49650001525879 18.26195335388184 L 16.49650001525879 24.42877388000488 C 16.49650001525879 25.40187454223633 15.89972019195557 26.19072341918945 15.16355991363525 26.19072341918945 L 5.832940101623535 26.19072341918945 C 5.096779823303223 26.19072341918945 4.5 25.40187454223633 4.5 24.42877388000488 L 4.5 18.26195335388184 C 4.5 17.28885269165039 5.096779823303223 16.50000381469727 5.832940101623535 16.50000381469727 Z" stroke="none" fill="#aaa"/>
      </g>
      <path id="패스_403" data-name="패스 403" d="M10.5,8.944V6.3a3.336,3.336,0,0,1,6.671,0V8.944" transform="translate(-7.837 -3)" fill="none" stroke="#aaa" stroke-linecap="round" stroke-linejoin="round" stroke-width="1"/>
      <circle id="타원_15" data-name="타원 15" cx="1.167" cy="1.167" r="1.167" transform="translate(4.832 8.994)" fill="#aaa"/>
    </g>
  </g>
</svg>
