<svg xmlns="http://www.w3.org/2000/svg" width="20" height="20" viewBox="0 0 20 20">
  <g id="그룹_4924" data-name="그룹 4924" transform="translate(-1388 -843)">
    <g id="그룹_4905" data-name="그룹 4905" transform="translate(-3 110.553)">
      <path id="패스_35264" data-name="패스 35264" d="M593.177,83.347h-5.313V80.174h10.69v1.268" transform="translate(805.136 656.273)" fill="none" stroke="#666" stroke-linecap="round" stroke-linejoin="round" stroke-width="1" fill-rule="evenodd"/>
      <path id="패스_35265" data-name="패스 35265" d="M592.653,100.788h-4.79V97.615h4.831" transform="translate(805.136 645.178)" fill="none" stroke="#666" stroke-linecap="round" stroke-linejoin="round" stroke-width="1" fill-rule="evenodd"/>
      <circle id="타원_123" data-name="타원 123" cx="4.84" cy="4.84" r="4.84" transform="translate(1399.586 739.539)" fill="none" stroke="#666" stroke-miterlimit="10" stroke-width="1"/>
      <path id="패스_35267" data-name="패스 35267" d="M0,0V3.173" transform="translate(1393 739.62)" fill="none" stroke="#666" stroke-linecap="round" stroke-width="1"/>
      <g id="그룹_3067" data-name="그룹 3067" transform="translate(1403.277 742.345)">
        <path id="패스_35266" data-name="패스 35266" d="M617.517,96.385h1.629a1.4,1.4,0,1,1-.023,2.8h-.746v1.354h-.86Zm1.468,2.105a.666.666,0,0,0,.757-.706c0-.413-.247-.691-.757-.694h-.608v1.4Z" transform="translate(-617.517 -96.385)" fill="#666"/>
      </g>
    </g>
    <rect id="사각형_2072" data-name="사각형 2072" width="20" height="20" transform="translate(1388 843)" fill="none"/>
  </g>
</svg>
