<?xml version="1.0" encoding="utf-8"?>
<!-- Generator: Adobe Illustrator 27.5.0, SVG Export Plug-In . SVG Version: 6.00 Build 0)  -->
<svg version="1.1" id="Layer_1" xmlns="http://www.w3.org/2000/svg" xmlns:xlink="http://www.w3.org/1999/xlink" x="0px" y="0px"
	 viewBox="0 0 32 32" style="enable-background:new 0 0 32 32;" xml:space="preserve">
<style type="text/css">
	.st0{fill:none;}
	.st1{fill:none;stroke:#333333;stroke-width:1.5;stroke-linecap:round;stroke-linejoin:round;}
</style>
<g id="그룹_2301" transform="translate(-1530 -446)">
	<rect id="사각형_426" x="1530" y="446" class="st0" width="32" height="32"/>
	<g id="그룹_1193" transform="translate(1537.529 453.529)">
		<path id="패스_400" class="st1" d="M17,16.7v-2.1c0-2.3-1.9-4.2-4.2-4.2H4.2c-2.3,0-4.2,1.9-4.2,4.2l0,0v2.1"/>
		<path id="패스_401" class="st1" d="M12.4,3.9c0,2.1-1.7,3.9-3.9,3.9C6.3,7.8,4.6,6,4.6,3.9C4.6,1.7,6.3,0,8.5,0c0,0,0,0,0,0
			C10.6,0,12.4,1.7,12.4,3.9z"/>
	</g>
</g>
</svg>
