<svg xmlns="http://www.w3.org/2000/svg" width="36" height="36" viewBox="0 0 36 36">
  <g id="그룹_2357" data-name="그룹 2357" transform="translate(-1554.619 -261.23)">
    <rect id="사각형_121" data-name="사각형 121" width="36" height="36" rx="18" transform="translate(1590.619 261.23) rotate(90)" fill="none"/>
    <g id="Icon_feather-share-2" data-name="Icon feather-share-2" transform="translate(1563.661 270.484)">
      <path id="패스_409" data-name="패스 409" d="M27.954,5.727A2.727,2.727,0,1,1,25.227,3,2.727,2.727,0,0,1,27.954,5.727Z" transform="translate(-11.593 -3)" fill="none" stroke="#333" stroke-linecap="round" stroke-linejoin="round" stroke-width="1"/>
      <path id="패스_410" data-name="패스 410" d="M9.954,16.227A2.727,2.727,0,1,1,7.227,13.5,2.727,2.727,0,0,1,9.954,16.227Z" transform="translate(-4.5 -7.138)" fill="none" stroke="#333" stroke-linecap="round" stroke-linejoin="round" stroke-width="1"/>
      <path id="패스_411" data-name="패스 411" d="M27.954,26.727A2.727,2.727,0,1,1,25.227,24,2.727,2.727,0,0,1,27.954,26.727Z" transform="translate(-11.593 -11.275)" fill="none" stroke="#333" stroke-linecap="round" stroke-linejoin="round" stroke-width="1"/>
      <path id="패스_412" data-name="패스 412" d="M12.885,20.265l6.208,3.618" transform="translate(-7.804 -9.803)" fill="none" stroke="#333" stroke-linecap="round" stroke-linejoin="round" stroke-width="1"/>
      <path id="패스_413" data-name="패스 413" d="M19.084,9.765l-6.2,3.618" transform="translate(-7.804 -5.666)" fill="none" stroke="#333" stroke-linecap="round" stroke-linejoin="round" stroke-width="1"/>
    </g>
  </g>
</svg>
