<svg xmlns="http://www.w3.org/2000/svg" width="24" height="24" viewBox="0 0 24 24">
  <g id="그룹_4684" data-name="그룹 4684" transform="translate(-1033 -877)">
    <rect id="사각형_1986" data-name="사각형 1986" width="24" height="24" transform="translate(1033 877)" fill="none"/>
    <g id="그룹_4683" data-name="그룹 4683" transform="translate(1037.908 882.489)">
      <path id="패스_420" data-name="패스 420" d="M17.225,25.615H6a.6.6,0,0,1-.6-.6V18a.6.6,0,1,1,1.2,0v6.415H16.625V18a.6.6,0,0,1,1.2,0v7.015A.6.6,0,0,1,17.225,25.615Z" transform="translate(-4.597 -10.985)" fill="#333"/>
      <path id="패스_421" data-name="패스 421" d="M3,15.068H4.4a.6.6,0,1,1,0,1.2H3a.6.6,0,1,1,0-1.2Z" transform="translate(-3 -8.653)" fill="#333"/>
      <path id="패스_426" data-name="패스 426" d="M3,15.068H4.4a.6.6,0,1,1,0,1.2H3a.6.6,0,1,1,0-1.2Z" transform="translate(9.628 -8.653)" fill="#333"/>
      <path id="패스_427" data-name="패스 427" d="M0-.6H3.508a.6.6,0,0,1,.6.6.6.6,0,0,1-.6.6H0A.6.6,0,0,1-.6,0,.6.6,0,0,1,0-.6Z" transform="translate(14.031 7.015) rotate(-90)" fill="#333"/>
      <path id="패스_428" data-name="패스 428" d="M0-.6H3.508a.6.6,0,0,1,.6.6.6.6,0,0,1-.6.6H0A.6.6,0,0,1-.6,0,.6.6,0,0,1,0-.6Z" transform="translate(0 7.015) rotate(-90)" fill="#333"/>
      <path id="패스_425" data-name="패스 425" d="M3,15.068H17.031a.6.6,0,1,1,0,1.2H3a.6.6,0,1,1,0-1.2Z" transform="translate(-3 -12.161)" fill="#333"/>
      <path id="패스_422" data-name="패스 422" d="M18,21.623a.6.6,0,0,1-.6-.6V10.5a.6.6,0,0,1,1.2,0V21.023A.6.6,0,0,1,18,21.623Z" transform="translate(-10.985 -6.992)" fill="#333"/>
      <path id="패스_423" data-name="패스 423" d="M12.411,7.108H9.254a2.354,2.354,0,0,1,0-4.708,3.455,3.455,0,0,1,3.025,2.065A7.489,7.489,0,0,1,13,6.39a.6.6,0,0,1-.588.718ZM9.254,3.6a1.154,1.154,0,0,0,0,2.308h2.358C11.293,5.013,10.58,3.6,9.254,3.6Z" transform="translate(-5.396 -3)" fill="#333"/>
      <path id="패스_424" data-name="패스 424" d="M21.157,7.108H18a.6.6,0,0,1-.588-.718,7.489,7.489,0,0,1,.72-1.925A3.455,3.455,0,0,1,21.157,2.4a2.354,2.354,0,0,1,0,4.708Zm-2.36-1.2h2.36a1.154,1.154,0,0,0,0-2.308C19.824,3.6,19.113,5.013,18.8,5.908Z" transform="translate(-10.985 -3)" fill="#333"/>
    </g>
  </g>
</svg>
