<svg xmlns="http://www.w3.org/2000/svg" width="30" height="30" viewBox="0 0 30 30">
  <g id="그룹_4865" data-name="그룹 4865" transform="translate(0)">
    <rect id="사각형_457" data-name="사각형 457" width="30" height="30" transform="translate(0)" fill="none"/>
    <g id="그룹_4745" data-name="그룹 4745" transform="translate(8.094 8.465)">
      <path id="패스_35336" data-name="패스 35336" d="M62.445,21.393H49.314a.4.4,0,0,1-.4-.4V10.327a.4.4,0,0,1,.4-.4h2.809a.4.4,0,1,1,0,.8h-2.41V20.6H62.046V10.725h-2.3a.4.4,0,0,1,0-.8h2.7a.4.4,0,0,1,.4.4V20.995A.4.4,0,0,1,62.445,21.393Z" transform="translate(-48.915 -8.324)" fill="#aaa"/>
      <g id="그룹_4744" data-name="그룹 4744" transform="translate(2.857)">
        <path id="패스_35337" data-name="패스 35337" d="M55.486,10.7a1.2,1.2,0,0,1-1.2-1.2v-1.4a1.2,1.2,0,0,1,2.392,0V9.5A1.2,1.2,0,0,1,55.486,10.7Zm0-2.99a.4.4,0,0,0-.4.4V9.5a.4.4,0,0,0,.8,0v-1.4A.4.4,0,0,0,55.486,7.707Z" transform="translate(-54.29 -6.91)" fill="#aaa"/>
        <path id="패스_35338" data-name="패스 35338" d="M66.443,10.7a1.2,1.2,0,0,1-1.2-1.2v-1.4a1.2,1.2,0,0,1,2.392,0V9.5A1.2,1.2,0,0,1,66.443,10.7Zm0-2.99a.4.4,0,0,0-.4.4V9.5a.4.4,0,0,0,.8,0v-1.4A.4.4,0,0,0,66.443,7.707Z" transform="translate(-59.424 -6.91)" fill="#aaa"/>
      </g>
      <path id="패스_35339" data-name="패스 35339" d="M61.917,10.725H57.689a.4.4,0,0,1,0-.8h4.229a.4.4,0,1,1,0,.8Z" transform="translate(-52.839 -8.324)" fill="#aaa"/>
      <path id="패스_35340" data-name="패스 35340" d="M62.445,17.084H49.314a.4.4,0,1,1,0-.8H62.445a.4.4,0,0,1,0,.8Z" transform="translate(-48.915 -11.304)" fill="#aaa"/>
    </g>
  </g>
</svg>
