<svg xmlns="http://www.w3.org/2000/svg" width="17.449" height="21.094" viewBox="0 0 17.449 21.094">
  <g id="그룹_3526" data-name="그룹 3526" transform="translate(0.75 0.75)">
    <path id="패스_35285" data-name="패스 35285" d="M-430.744,563.434a3.606,3.606,0,0,1-3.6-3.6.75.75,0,0,1,.75-.75.75.75,0,0,1,.75.75,2.1,2.1,0,0,0,2.1,2.1,2.1,2.1,0,0,0,2.1-2.1.75.75,0,0,1,.75-.75.75.75,0,0,1,.75.75A3.6,3.6,0,0,1-430.744,563.434Z" transform="translate(438.719 -543.09)" fill="#333"/>
    <path id="패스_35286" data-name="패스 35286" d="M-430.194,547.948h2.331c3.193,0,5.284,1.588,6.393,4.853.968,2.852,1.167,6.8,1.167,11.856a.75.75,0,0,1-.75.75H-437a.75.75,0,0,1-.75-.75c0-5.055.2-9.005,1.166-11.857C-435.479,549.535-433.388,547.948-430.194,547.948Zm8.389,15.96c-.017-4-.186-7.975-1.086-10.624s-2.434-3.836-4.973-3.836h-2.331c-2.539,0-4.072,1.183-4.972,3.835s-1.068,6.627-1.085,10.625Z" transform="translate(437.003 -548.698)" fill="#333"/>
  </g>
</svg>
