<?xml version="1.0" encoding="utf-8"?>
<!-- Generator: Adobe Illustrator 27.5.0, SVG Export Plug-In . SVG Version: 6.00 Build 0)  -->
<svg version="1.1" id="Layer_1" xmlns="http://www.w3.org/2000/svg" xmlns:xlink="http://www.w3.org/1999/xlink" x="0px" y="0px"
	 viewBox="0 0 32 32" style="enable-background:new 0 0 32 32;" xml:space="preserve">
<style type="text/css">
	.st0{fill:none;}
	.st1{fill:none;stroke:#333333;stroke-width:1.5;stroke-linecap:round;stroke-linejoin:round;}
</style>
<g id="그룹_2303" transform="translate(-1445 -482)">
	<rect id="사각형_426" x="1445" y="482" class="st0" width="32" height="32"/>
	<path id="Icon_feather-heart" class="st1" d="M1468.2,492.3c-1.7-1.7-4.4-1.7-6.1,0c0,0,0,0,0,0l-0.8,0.8l-0.8-0.8
		c-1.6-1.7-4.4-1.8-6.1-0.2c-1.7,1.6-1.8,4.4-0.2,6.1c0.1,0.1,0.1,0.1,0.2,0.2l0.8,0.8l6.1,6.1l6.1-6.1l0.8-0.8
		C1469.9,496.8,1469.9,494,1468.2,492.3C1468.2,492.3,1468.2,492.3,1468.2,492.3L1468.2,492.3z"/>
</g>
</svg>
