<svg xmlns="http://www.w3.org/2000/svg" width="80" height="92" viewBox="0 0 80 92">
  <g id="그룹_4238" data-name="그룹 4238" transform="translate(-82 -5521)">
    <g id="그룹_4047" data-name="그룹 4047" transform="translate(-113 1178)">
      <g id="그룹_2349" data-name="그룹 2349" transform="translate(194.776 4342.776)">
        <path id="Icon_awesome-star" data-name="Icon awesome-star" d="M7.233.43l-1.584,3.2-3.543.515a.774.774,0,0,0-.429,1.32L4.24,7.958l-.606,3.519a.775.775,0,0,0,1.125.815l3.17-1.661,3.17,1.661a.776.776,0,0,0,1.125-.815l-.606-3.519,2.564-2.491a.774.774,0,0,0-.429-1.32l-3.543-.515L8.625.43a.778.778,0,0,0-1.392,0Z" transform="translate(-0.002 2.16)" fill="#385ce2"/>
        <rect id="사각형_609" data-name="사각형 609" width="16" height="16" transform="translate(0.224 0.224)" fill="none"/>
      </g>
      <g id="그룹_3900" data-name="그룹 3900" transform="translate(210.776 4342.776)">
        <path id="Icon_awesome-star-2" data-name="Icon awesome-star" d="M7.233.43l-1.584,3.2-3.543.515a.774.774,0,0,0-.429,1.32L4.24,7.958l-.606,3.519a.775.775,0,0,0,1.125.815l3.17-1.661,3.17,1.661a.776.776,0,0,0,1.125-.815l-.606-3.519,2.564-2.491a.774.774,0,0,0-.429-1.32l-3.543-.515L8.625.43a.778.778,0,0,0-1.392,0Z" transform="translate(-0.002 2.16)" fill="#385ce2"/>
        <rect id="사각형_609-2" data-name="사각형 609" width="16" height="16" transform="translate(0.224 0.224)" fill="none"/>
      </g>
      <g id="그룹_3903" data-name="그룹 3903" transform="translate(242.776 4342.776)">
        <path id="Icon_awesome-star-3" data-name="Icon awesome-star" d="M7.233.43l-1.584,3.2-3.543.515a.774.774,0,0,0-.429,1.32L4.24,7.958l-.606,3.519a.775.775,0,0,0,1.125.815l3.17-1.661,3.17,1.661a.776.776,0,0,0,1.125-.815l-.606-3.519,2.564-2.491a.774.774,0,0,0-.429-1.32l-3.543-.515L8.625.43a.778.778,0,0,0-1.392,0Z" transform="translate(-0.002 2.16)" fill="#385ce2"/>
        <rect id="사각형_609-3" data-name="사각형 609" width="16" height="16" transform="translate(0.224 0.224)" fill="none"/>
      </g>
      <g id="그룹_3901" data-name="그룹 3901" transform="translate(226.776 4342.776)">
        <path id="Icon_awesome-star-4" data-name="Icon awesome-star" d="M7.233.43l-1.584,3.2-3.543.515a.774.774,0,0,0-.429,1.32L4.24,7.958l-.606,3.519a.775.775,0,0,0,1.125.815l3.17-1.661,3.17,1.661a.776.776,0,0,0,1.125-.815l-.606-3.519,2.564-2.491a.774.774,0,0,0-.429-1.32l-3.543-.515L8.625.43a.778.778,0,0,0-1.392,0Z" transform="translate(-0.002 2.16)" fill="#385ce2"/>
        <rect id="사각형_609-4" data-name="사각형 609" width="16" height="16" transform="translate(0.224 0.224)" fill="none"/>
      </g>
      <g id="그룹_3902" data-name="그룹 3902" transform="translate(258.776 4342.776)">
        <path id="Icon_awesome-star-5" data-name="Icon awesome-star" d="M7.233.43l-1.584,3.2-3.543.515a.774.774,0,0,0-.429,1.32L4.24,7.958l-.606,3.519a.775.775,0,0,0,1.125.815l3.17-1.661,3.17,1.661a.776.776,0,0,0,1.125-.815l-.606-3.519,2.564-2.491a.774.774,0,0,0-.429-1.32l-3.543-.515L8.625.43a.778.778,0,0,0-1.392,0Z" transform="translate(-0.002 2.16)" fill="#385ce2"/>
        <rect id="사각형_609-5" data-name="사각형 609" width="16" height="16" transform="translate(0.224 0.224)" fill="none"/>
      </g>
    </g>
    <g id="그룹_4046" data-name="그룹 4046" transform="translate(-113 1178)">
      <g id="그룹_4027" data-name="그룹 4027" transform="translate(194.776 4361.776)">
        <path id="Icon_awesome-star-6" data-name="Icon awesome-star" d="M7.233.43l-1.584,3.2-3.543.515a.774.774,0,0,0-.429,1.32L4.24,7.958l-.606,3.519a.775.775,0,0,0,1.125.815l3.17-1.661,3.17,1.661a.776.776,0,0,0,1.125-.815l-.606-3.519,2.564-2.491a.774.774,0,0,0-.429-1.32l-3.543-.515L8.625.43a.778.778,0,0,0-1.392,0Z" transform="translate(-0.002 2.16)" fill="#385ce2"/>
        <rect id="사각형_609-6" data-name="사각형 609" width="16" height="16" transform="translate(0.224 0.224)" fill="none"/>
      </g>
      <g id="그룹_4025" data-name="그룹 4025" transform="translate(210.776 4361.776)">
        <path id="Icon_awesome-star-7" data-name="Icon awesome-star" d="M7.233.43l-1.584,3.2-3.543.515a.774.774,0,0,0-.429,1.32L4.24,7.958l-.606,3.519a.775.775,0,0,0,1.125.815l3.17-1.661,3.17,1.661a.776.776,0,0,0,1.125-.815l-.606-3.519,2.564-2.491a.774.774,0,0,0-.429-1.32l-3.543-.515L8.625.43a.778.778,0,0,0-1.392,0Z" transform="translate(-0.002 2.16)" fill="#385ce2"/>
        <rect id="사각형_609-7" data-name="사각형 609" width="16" height="16" transform="translate(0.224 0.224)" fill="none"/>
      </g>
      <g id="그룹_4024" data-name="그룹 4024" transform="translate(242.776 4361.776)">
        <path id="Icon_awesome-star-8" data-name="Icon awesome-star" d="M7.233.43l-1.584,3.2-3.543.515a.774.774,0,0,0-.429,1.32L4.24,7.958l-.606,3.519a.775.775,0,0,0,1.125.815l3.17-1.661,3.17,1.661a.776.776,0,0,0,1.125-.815l-.606-3.519,2.564-2.491a.774.774,0,0,0-.429-1.32l-3.543-.515L8.625.43a.778.778,0,0,0-1.392,0Z" transform="translate(-0.002 2.16)" fill="#385ce2"/>
        <rect id="사각형_609-8" data-name="사각형 609" width="16" height="16" transform="translate(0.224 0.224)" fill="none"/>
      </g>
      <g id="그룹_4026" data-name="그룹 4026" transform="translate(226.776 4361.776)">
        <path id="Icon_awesome-star-9" data-name="Icon awesome-star" d="M7.233.43l-1.584,3.2-3.543.515a.774.774,0,0,0-.429,1.32L4.24,7.958l-.606,3.519a.775.775,0,0,0,1.125.815l3.17-1.661,3.17,1.661a.776.776,0,0,0,1.125-.815l-.606-3.519,2.564-2.491a.774.774,0,0,0-.429-1.32l-3.543-.515L8.625.43a.778.778,0,0,0-1.392,0Z" transform="translate(-0.002 2.16)" fill="#385ce2"/>
        <rect id="사각형_609-9" data-name="사각형 609" width="16" height="16" transform="translate(0.224 0.224)" fill="none"/>
      </g>
      <g id="그룹_4023" data-name="그룹 4023" transform="translate(-20 19)">
        <path id="Icon_awesome-star-10" data-name="Icon awesome-star" d="M7.233.43l-1.584,3.2-3.543.515a.774.774,0,0,0-.429,1.32L4.24,7.958l-.606,3.519a.775.775,0,0,0,1.125.815l3.17-1.661,3.17,1.661a.776.776,0,0,0,1.125-.815l-.606-3.519,2.564-2.491a.774.774,0,0,0-.429-1.32l-3.543-.515L8.625.43a.778.778,0,0,0-1.392,0Z" transform="translate(278.774 4344.936)" fill="none" stroke="#385ce2" stroke-width="1"/>
        <rect id="사각형_609-10" data-name="사각형 609" width="16" height="16" transform="translate(279 4343)" fill="none"/>
      </g>
    </g>
    <g id="그룹_4045" data-name="그룹 4045" transform="translate(-113 1178)">
      <g id="그룹_4030" data-name="그룹 4030" transform="translate(194.776 4380.776)">
        <path id="Icon_awesome-star-11" data-name="Icon awesome-star" d="M7.233.43l-1.584,3.2-3.543.515a.774.774,0,0,0-.429,1.32L4.24,7.958l-.606,3.519a.775.775,0,0,0,1.125.815l3.17-1.661,3.17,1.661a.776.776,0,0,0,1.125-.815l-.606-3.519,2.564-2.491a.774.774,0,0,0-.429-1.32l-3.543-.515L8.625.43a.778.778,0,0,0-1.392,0Z" transform="translate(-0.002 2.16)" fill="#385ce2"/>
        <rect id="사각형_609-11" data-name="사각형 609" width="16" height="16" transform="translate(0.224 0.224)" fill="none"/>
      </g>
      <g id="그룹_4028" data-name="그룹 4028" transform="translate(210.776 4380.776)">
        <path id="Icon_awesome-star-12" data-name="Icon awesome-star" d="M7.233.43l-1.584,3.2-3.543.515a.774.774,0,0,0-.429,1.32L4.24,7.958l-.606,3.519a.775.775,0,0,0,1.125.815l3.17-1.661,3.17,1.661a.776.776,0,0,0,1.125-.815l-.606-3.519,2.564-2.491a.774.774,0,0,0-.429-1.32l-3.543-.515L8.625.43a.778.778,0,0,0-1.392,0Z" transform="translate(-0.002 2.16)" fill="#385ce2"/>
        <rect id="사각형_609-12" data-name="사각형 609" width="16" height="16" transform="translate(0.224 0.224)" fill="none"/>
      </g>
      <g id="그룹_4035" data-name="그룹 4035" transform="translate(242.776 4380.776)">
        <path id="Icon_awesome-star-13" data-name="Icon awesome-star" d="M7.233.43l-1.584,3.2-3.543.515a.774.774,0,0,0-.429,1.32L4.24,7.958l-.606,3.519a.775.775,0,0,0,1.125.815l3.17-1.661,3.17,1.661a.776.776,0,0,0,1.125-.815l-.606-3.519,2.564-2.491a.774.774,0,0,0-.429-1.32l-3.543-.515L8.625.43a.778.778,0,0,0-1.392,0Z" transform="translate(-0.002 2.16)" fill="none" stroke="#385ce2" stroke-width="1"/>
        <rect id="사각형_609-13" data-name="사각형 609" width="16" height="16" transform="translate(0.224 0.224)" fill="none"/>
      </g>
      <g id="그룹_4029" data-name="그룹 4029" transform="translate(226.776 4380.776)">
        <path id="Icon_awesome-star-14" data-name="Icon awesome-star" d="M7.233.43l-1.584,3.2-3.543.515a.774.774,0,0,0-.429,1.32L4.24,7.958l-.606,3.519a.775.775,0,0,0,1.125.815l3.17-1.661,3.17,1.661a.776.776,0,0,0,1.125-.815l-.606-3.519,2.564-2.491a.774.774,0,0,0-.429-1.32l-3.543-.515L8.625.43a.778.778,0,0,0-1.392,0Z" transform="translate(-0.002 2.16)" fill="#385ce2"/>
        <rect id="사각형_609-14" data-name="사각형 609" width="16" height="16" transform="translate(0.224 0.224)" fill="none"/>
      </g>
      <g id="그룹_4034" data-name="그룹 4034" transform="translate(-20 38)">
        <path id="Icon_awesome-star-15" data-name="Icon awesome-star" d="M7.233.43l-1.584,3.2-3.543.515a.774.774,0,0,0-.429,1.32L4.24,7.958l-.606,3.519a.775.775,0,0,0,1.125.815l3.17-1.661,3.17,1.661a.776.776,0,0,0,1.125-.815l-.606-3.519,2.564-2.491a.774.774,0,0,0-.429-1.32l-3.543-.515L8.625.43a.778.778,0,0,0-1.392,0Z" transform="translate(278.774 4344.936)" fill="none" stroke="#385ce2" stroke-width="1"/>
        <rect id="사각형_609-15" data-name="사각형 609" width="16" height="16" transform="translate(279 4343)" fill="none"/>
      </g>
    </g>
    <g id="그룹_4044" data-name="그룹 4044" transform="translate(-113 1178)">
      <g id="그룹_4031" data-name="그룹 4031" transform="translate(194.776 4399.776)">
        <path id="Icon_awesome-star-16" data-name="Icon awesome-star" d="M7.233.43l-1.584,3.2-3.543.515a.774.774,0,0,0-.429,1.32L4.24,7.958l-.606,3.519a.775.775,0,0,0,1.125.815l3.17-1.661,3.17,1.661a.776.776,0,0,0,1.125-.815l-.606-3.519,2.564-2.491a.774.774,0,0,0-.429-1.32l-3.543-.515L8.625.43a.778.778,0,0,0-1.392,0Z" transform="translate(-0.002 2.16)" fill="#385ce2"/>
        <rect id="사각형_609-16" data-name="사각형 609" width="16" height="16" transform="translate(0.224 0.224)" fill="none"/>
      </g>
      <g id="그룹_4032" data-name="그룹 4032" transform="translate(210.776 4399.776)">
        <path id="Icon_awesome-star-17" data-name="Icon awesome-star" d="M7.233.43l-1.584,3.2-3.543.515a.774.774,0,0,0-.429,1.32L4.24,7.958l-.606,3.519a.775.775,0,0,0,1.125.815l3.17-1.661,3.17,1.661a.776.776,0,0,0,1.125-.815l-.606-3.519,2.564-2.491a.774.774,0,0,0-.429-1.32l-3.543-.515L8.625.43a.778.778,0,0,0-1.392,0Z" transform="translate(-0.002 2.16)" fill="#385ce2"/>
        <rect id="사각형_609-17" data-name="사각형 609" width="16" height="16" transform="translate(0.224 0.224)" fill="none"/>
      </g>
      <g id="그룹_4037" data-name="그룹 4037" transform="translate(242.776 4399.776)">
        <path id="Icon_awesome-star-18" data-name="Icon awesome-star" d="M7.233.43l-1.584,3.2-3.543.515a.774.774,0,0,0-.429,1.32L4.24,7.958l-.606,3.519a.775.775,0,0,0,1.125.815l3.17-1.661,3.17,1.661a.776.776,0,0,0,1.125-.815l-.606-3.519,2.564-2.491a.774.774,0,0,0-.429-1.32l-3.543-.515L8.625.43a.778.778,0,0,0-1.392,0Z" transform="translate(-0.002 2.16)" fill="none" stroke="#385ce2" stroke-width="1"/>
        <rect id="사각형_609-18" data-name="사각형 609" width="16" height="16" transform="translate(0.224 0.224)" fill="none"/>
      </g>
      <g id="그룹_4038" data-name="그룹 4038" transform="translate(226.776 4399.776)">
        <path id="Icon_awesome-star-19" data-name="Icon awesome-star" d="M7.233.43l-1.584,3.2-3.543.515a.774.774,0,0,0-.429,1.32L4.24,7.958l-.606,3.519a.775.775,0,0,0,1.125.815l3.17-1.661,3.17,1.661a.776.776,0,0,0,1.125-.815l-.606-3.519,2.564-2.491a.774.774,0,0,0-.429-1.32l-3.543-.515L8.625.43a.778.778,0,0,0-1.392,0Z" transform="translate(-0.002 2.16)" fill="none" stroke="#385ce2" stroke-width="1"/>
        <rect id="사각형_609-19" data-name="사각형 609" width="16" height="16" transform="translate(0.224 0.224)" fill="none"/>
      </g>
      <g id="그룹_4036" data-name="그룹 4036" transform="translate(-20 57)">
        <path id="Icon_awesome-star-20" data-name="Icon awesome-star" d="M7.233.43l-1.584,3.2-3.543.515a.774.774,0,0,0-.429,1.32L4.24,7.958l-.606,3.519a.775.775,0,0,0,1.125.815l3.17-1.661,3.17,1.661a.776.776,0,0,0,1.125-.815l-.606-3.519,2.564-2.491a.774.774,0,0,0-.429-1.32l-3.543-.515L8.625.43a.778.778,0,0,0-1.392,0Z" transform="translate(278.774 4344.936)" fill="none" stroke="#385ce2" stroke-width="1"/>
        <rect id="사각형_609-20" data-name="사각형 609" width="16" height="16" transform="translate(279 4343)" fill="none"/>
      </g>
    </g>
    <g id="그룹_4043" data-name="그룹 4043" transform="translate(-113 1178)">
      <g id="그룹_4033" data-name="그룹 4033" transform="translate(194.776 4418.776)">
        <path id="Icon_awesome-star-21" data-name="Icon awesome-star" d="M7.233.43l-1.584,3.2-3.543.515a.774.774,0,0,0-.429,1.32L4.24,7.958l-.606,3.519a.775.775,0,0,0,1.125.815l3.17-1.661,3.17,1.661a.776.776,0,0,0,1.125-.815l-.606-3.519,2.564-2.491a.774.774,0,0,0-.429-1.32l-3.543-.515L8.625.43a.778.778,0,0,0-1.392,0Z" transform="translate(-0.002 2.16)" fill="#385ce2"/>
        <rect id="사각형_609-21" data-name="사각형 609" width="16" height="16" transform="translate(0.224 0.224)" fill="none"/>
      </g>
      <g id="그룹_4040" data-name="그룹 4040" transform="translate(242.776 4418.776)">
        <path id="Icon_awesome-star-22" data-name="Icon awesome-star" d="M7.233.43l-1.584,3.2-3.543.515a.774.774,0,0,0-.429,1.32L4.24,7.958l-.606,3.519a.775.775,0,0,0,1.125.815l3.17-1.661,3.17,1.661a.776.776,0,0,0,1.125-.815l-.606-3.519,2.564-2.491a.774.774,0,0,0-.429-1.32l-3.543-.515L8.625.43a.778.778,0,0,0-1.392,0Z" transform="translate(-0.002 2.16)" fill="none" stroke="#385ce2" stroke-width="1"/>
        <rect id="사각형_609-22" data-name="사각형 609" width="16" height="16" transform="translate(0.224 0.224)" fill="none"/>
      </g>
      <g id="그룹_4041" data-name="그룹 4041" transform="translate(226.776 4418.776)">
        <path id="Icon_awesome-star-23" data-name="Icon awesome-star" d="M7.233.43l-1.584,3.2-3.543.515a.774.774,0,0,0-.429,1.32L4.24,7.958l-.606,3.519a.775.775,0,0,0,1.125.815l3.17-1.661,3.17,1.661a.776.776,0,0,0,1.125-.815l-.606-3.519,2.564-2.491a.774.774,0,0,0-.429-1.32l-3.543-.515L8.625.43a.778.778,0,0,0-1.392,0Z" transform="translate(-0.002 2.16)" fill="none" stroke="#385ce2" stroke-width="1"/>
        <rect id="사각형_609-23" data-name="사각형 609" width="16" height="16" transform="translate(0.224 0.224)" fill="none"/>
      </g>
      <g id="그룹_4042" data-name="그룹 4042" transform="translate(210.776 4418.776)">
        <path id="Icon_awesome-star-24" data-name="Icon awesome-star" d="M7.233.43l-1.584,3.2-3.543.515a.774.774,0,0,0-.429,1.32L4.24,7.958l-.606,3.519a.775.775,0,0,0,1.125.815l3.17-1.661,3.17,1.661a.776.776,0,0,0,1.125-.815l-.606-3.519,2.564-2.491a.774.774,0,0,0-.429-1.32l-3.543-.515L8.625.43a.778.778,0,0,0-1.392,0Z" transform="translate(-0.002 2.16)" fill="none" stroke="#385ce2" stroke-width="1"/>
        <rect id="사각형_609-24" data-name="사각형 609" width="16" height="16" transform="translate(0.224 0.224)" fill="none"/>
      </g>
      <g id="그룹_4039" data-name="그룹 4039" transform="translate(-20 76)">
        <path id="Icon_awesome-star-25" data-name="Icon awesome-star" d="M7.233.43l-1.584,3.2-3.543.515a.774.774,0,0,0-.429,1.32L4.24,7.958l-.606,3.519a.775.775,0,0,0,1.125.815l3.17-1.661,3.17,1.661a.776.776,0,0,0,1.125-.815l-.606-3.519,2.564-2.491a.774.774,0,0,0-.429-1.32l-3.543-.515L8.625.43a.778.778,0,0,0-1.392,0Z" transform="translate(278.774 4344.936)" fill="none" stroke="#385ce2" stroke-width="1"/>
        <rect id="사각형_609-25" data-name="사각형 609" width="16" height="16" transform="translate(279 4343)" fill="none"/>
      </g>
    </g>
  </g>
</svg>
